<?xml version="1.0" standalone="no"?>
<!DOCTYPE svg PUBLIC "-//W3C//DTD SVG 20010904//EN"
 "http://www.w3.org/TR/2001/REC-SVG-20010904/DTD/svg10.dtd">
<svg version="1.0" xmlns="http://www.w3.org/2000/svg"
 width="2316.000000pt" height="2316.000000pt" viewBox="0 0 2316.000000 2316.000000"
 preserveAspectRatio="xMidYMid meet">
<metadata>
Created by potrace 1.14, written by Peter Selinger 2001-2017
</metadata>
<g transform="translate(0.000000,2316.000000) scale(0.100000,-0.100000)"
fill="#000000" stroke="none">
<path d="M10150 16430 l0 -330 -430 0 -430 0 0 -85 0 -85 -160 0 -160 0 0 -80
0 -80 -205 0 -205 0 0 -70 0 -70 -110 0 -110 0 0 -80 0 -80 -100 0 -100 0 0
-70 0 -70 -105 0 -105 0 0 -120 0 -120 -100 0 -100 0 0 -145 0 -145 -110 0
-110 0 0 -570 0 -570 110 0 110 0 0 -185 0 -185 100 0 100 0 0 -85 0 -85 105
0 105 0 0 -65 0 -65 100 0 100 0 0 -85 0 -85 110 0 110 0 0 -80 0 -80 115 0
115 0 0 -70 0 -70 205 0 205 0 0 -35 c0 -35 0 -35 45 -35 l45 0 0 -80 0 -80
205 0 205 0 0 -75 0 -75 225 0 225 0 0 -1635 0 -1635 -110 0 -110 0 0 85 0 85
-205 0 -205 0 0 70 0 70 -160 0 -160 0 0 85 0 85 -115 0 -115 0 0 145 0 145
-90 0 -90 0 0 115 0 115 -115 0 -115 0 0 225 0 225 -110 0 -110 0 0 150 0 150
-530 0 -530 0 0 -790 0 -790 115 0 115 0 0 -85 0 -85 210 0 210 0 0 -30 0 -30
205 0 205 0 0 -85 0 -85 225 0 225 0 0 -70 0 -70 205 0 205 0 0 -75 0 -75 475
0 475 0 0 -490 0 -490 100 0 100 0 0 -80 0 -80 640 0 640 0 0 80 0 80 105 0
105 0 0 490 0 490 415 0 415 0 0 75 0 75 210 0 210 0 0 70 0 70 205 0 205 0 0
85 0 85 120 0 120 0 0 30 0 30 105 0 105 0 0 85 0 85 100 0 100 0 0 70 0 70
110 0 110 0 0 150 0 150 95 0 95 0 0 150 0 150 110 0 110 0 0 690 0 690 -110
0 -110 0 0 145 0 145 -95 0 -95 0 0 85 0 85 -110 0 -110 0 0 30 0 30 -100 0
-100 0 0 85 0 85 -105 0 -105 0 0 70 0 70 -120 0 -120 0 0 75 0 75 -90 0 -90
0 0 75 0 75 -205 0 -205 0 0 80 0 80 -225 0 -225 0 0 35 0 35 -210 0 -210 0 0
70 0 70 -100 0 -100 0 0 1335 0 1335 210 0 210 0 0 -35 0 -35 100 0 100 0 0
-85 0 -85 105 0 105 0 0 -70 0 -70 120 0 120 0 0 -230 0 -230 90 0 90 0 0
-185 0 -185 115 0 115 0 0 -75 0 -75 415 0 415 0 0 680 0 680 -100 0 -100 0 0
70 0 70 -105 0 -105 0 0 80 0 80 -210 0 -210 0 0 70 0 70 -205 0 -205 0 0 80
0 80 -225 0 -225 0 0 85 0 85 -310 0 -310 0 0 330 0 330 -845 0 -845 0 0 -330z
m0 -2205 l0 -1105 -110 0 -110 0 0 85 0 85 -205 0 -205 0 0 70 0 70 -115 0
-115 0 0 115 0 115 -45 0 -45 0 0 230 0 230 -115 0 -115 0 0 185 0 185 115 0
115 0 0 155 0 155 45 0 45 0 0 145 0 145 115 0 115 0 0 85 0 85 90 0 90 0 0
35 0 35 225 0 225 0 0 -1105z m1890 -2575 l0 -30 210 0 210 0 0 -85 0 -85 105
0 105 0 0 -70 0 -70 120 0 120 0 0 -145 0 -145 90 0 90 0 0 -690 0 -690 -90 0
-90 0 0 -80 0 -80 -120 0 -120 0 0 -65 0 -65 -105 0 -105 0 0 -85 0 -85 -100
0 -100 0 0 -70 0 -70 -210 0 -210 0 0 1320 0 1320 100 0 100 0 0 -30z"/>
</g>
</svg>
